<svg xmlns="http://www.w3.org/2000/svg" viewBox="0 0 388.04 229.62"><defs><style>.cls-1{fill:#fff;}</style></defs><g id="Capa_2" data-name="Capa 2"><g id="Capa_2-2" data-name="Capa 2"><path class="cls-1" d="M63.73,43.41c1-.59,2.06-1.16,3.11-1.7s2.09-1.13,3.17-1.62c2.15-1,4.31-2,6.54-2.77a99.51,99.51,0,0,1,13.74-4.14,103.14,103.14,0,0,1,14.46-2c2.46-.15,4.93-.22,7.41-.16,1.25,0,2.49.05,3.74.12s2.5.15,3.74.3c2.5.24,5,.59,7.49,1,1.25.22,2.49.47,3.72.77s2.47.58,3.69.93c2.47.62,4.88,1.48,7.31,2.3,1.2.42,2.38,1,3.58,1.43s2.4.94,3.55,1.52c2.33,1.09,4.64,2.26,6.83,3.56s4.36,2.62,6.48,4c4.07,2.82,8,5.78,11.52,8.62l5.2,4.28,5,4c1.63,1.37,3.26,2.6,4.89,3.85.81.65,1.65,1.21,2.47,1.8s1.64,1.22,2.46,1.8c3.33,2.31,6.73,4.47,10.26,6.54,1.77,1,3.55,2,5.39,3s3.67,1.91,5.53,2.84,3.76,1.84,5.7,2.64,3.88,1.63,5.84,2.47c3.95,1.56,8,3.06,12.13,4.42s8.38,2.64,12.71,3.87l13.3,3.56.06,1.5a154.36,154.36,0,0,1-27.18-.9c-4.51-.6-9-1.43-13.42-2.45S215.35,96.45,211,95a129.16,129.16,0,0,1-24.69-11.64c-7.78-4.78-14.92-10.48-21.94-16.12-3.48-2.85-7-5.61-10.63-8.21-1.83-1.27-3.65-2.55-5.56-3.69s-3.84-2.24-5.78-3.32a93.2,93.2,0,0,0-25.1-8.8,109.23,109.23,0,0,0-13.25-1.77A132.85,132.85,0,0,0,90.7,41.3a152.61,152.61,0,0,0-26.62,3.57Z"/><path class="cls-1" d="M264.72,130.31l-13.31,4-3.25,1-3.21,1c-2.13.66-4.23,1.39-6.32,2.1s-4.16,1.42-6.18,2.23-4.06,1.55-6.06,2.34-4,1.63-5.9,2.51c-1,.42-1.94.87-2.89,1.33s-1.93.87-2.87,1.35c-1.9.89-3.77,1.85-5.6,2.84s-3.68,1.95-5.48,3c-3.55,2.15-7.1,4.23-10.46,6.57-1.7,1.14-3.36,2.37-5,3.52s-3.29,2.49-4.93,3.78c-3.3,2.57-6.58,5.25-10,8.16-6.87,5.59-14.43,12.1-23.85,17.05a78.22,78.22,0,0,1-14.67,6l-3.8,1-1.9.49c-.63.13-1.27.24-1.91.35-1.29.21-2.56.47-3.84.63l-3.84.45c-1.28.16-2.57.19-3.85.24l-1.91.08-1.92,0c-1.27,0-2.54,0-3.81-.08s-2.52-.19-3.77-.29a86.3,86.3,0,0,1-14.64-2.81A82.89,82.89,0,0,1,75.94,194a76.63,76.63,0,0,1-12.29-7.37l.51-1.41a120,120,0,0,0,26.31,5.93,102.37,102.37,0,0,0,13.44.58,91.78,91.78,0,0,0,13.34-1.45,84.75,84.75,0,0,0,12.9-3.58,73.64,73.64,0,0,0,12-5.81c1.95-1.08,3.76-2.41,5.64-3.63s3.63-2.62,5.37-4c3.54-2.78,7-5.75,10.46-8.66a168.24,168.24,0,0,1,22.2-16.11c3.94-2.36,8-4.48,12.15-6.44a133.65,133.65,0,0,1,12.75-5.14q6.5-2.24,13.18-3.86t13.48-2.59a181,181,0,0,1,27.32-1.57Z"/><path class="cls-1" d="M267.81,163.84a75.88,75.88,0,0,1-7,5.68,91,91,0,0,1-7.77,4.81,75.78,75.78,0,0,1-17.33,6.92c-1.53.41-3.08.76-4.65,1.06s-3.14.55-4.73.8-3.21.3-4.83.44l-2.44.18h-2.47l-2.49,0h-1.24c-.42,0-.83-.08-1.25-.12l-5-.55-4.93-.93a23.11,23.11,0,0,1-2.42-.59l-2.38-.67c-1.62-.42-3.13-1-4.65-1.49l-2.29-.79c-.76-.27-1.46-.57-2.2-.85-1.43-.58-2.93-1.18-4.3-1.79l-4.16-1.84c-5.42-2.42-10.54-5-15.61-7.29l-7.55-3.43c-2.52-1-5-2.19-7.56-3.15-5-2.08-10.13-4-15.31-5.71l-3.88-1.33c-1.28-.45-2.58-.89-4-1.32l-8-2.51c-5.26-1.68-10.47-3.06-15.67-4.36S91.29,142.71,86,141.87l-4-.54c-1.32-.18-2.65-.27-4-.45-2.67-.28-5.35-.53-8-.65-1.35-.08-2.69-.13-4-.18s-2.71-.13-4.07-.11-2.72,0-4.08,0-2.73,0-4.1.07c-5.47.2-11,.58-16.54,1.24s-11.12,1.53-16.77,2.54c-1.41.25-2.81.54-4.23.82l-4.23.94c-2.87.56-5.68,1.32-8.59,1.94l-.67-1.34a165.49,165.49,0,0,1,32.44-12.73A153.07,153.07,0,0,1,104.47,131c5.73,1.11,11.39,2.52,17,4.09s11.12,3.31,16.65,5.16a237,237,0,0,1,32,13.82c5.16,2.66,10.23,5.46,15.33,8.17A133.69,133.69,0,0,0,201,169.54l2,.73a21,21,0,0,0,2,.67l4.1,1.15,4.18.82a16.35,16.35,0,0,0,2.1.31l2.12.23,2.12.23,2.13.06c1.43,0,2.85.1,4.27.08a84,84,0,0,0,8.53-.63,91.48,91.48,0,0,0,32.45-10.66Z"/><path class="cls-1" d="M263.46,67.52c-2.86-.67-5.64-1.38-8.46-1.86s-5.55-1-8.3-1.29a87.81,87.81,0,0,0-16.17-.31,65.28,65.28,0,0,0-15,2.79c-2.34.8-4.64,1.61-6.92,2.65l-1.7.77c-.57.27-1.14.58-1.71.87l-1.71.86-1.73.92c-9.15,5-19.14,11.39-29.83,16.79-2.66,1.36-5.41,2.65-8.09,3.88s-5.46,2.46-8.23,3.62q-8.34,3.39-16.92,6.23t-17.43,4.86l-4.44,1c-1.48.31-3,.58-4.47.87-3,.6-6,1-9,1.46A159.46,159.46,0,0,1,85.05,113a130.61,130.61,0,0,1-18.45-.77A138.27,138.27,0,0,1,0,86.63l.6-1.37c5.29,2.15,10.61,4.25,16.06,6,2.7.93,5.45,1.68,8.19,2.49L29,94.8c1.37.38,2.76.7,4.16,1A167.08,167.08,0,0,0,67,100.28,147.16,147.16,0,0,0,84,99.8c5.67-.42,11.32-1.24,16.94-2.18a241,241,0,0,0,33.12-8.44A292.05,292.05,0,0,0,166,76.8c5.19-2.38,10.31-4.92,15.44-7.49s10.27-5.17,15.6-7.44a76.93,76.93,0,0,1,16.67-5.17A68,68,0,0,1,231.16,56a84.59,84.59,0,0,1,33,10.25Z"/><path class="cls-1" d="M258.82,64.59c3.88-20.94,7.13-25.9,9.54-25.9,7,0,14,42.31,13.63,80-.32,31.56-5.91,71.49-13.63,71.78-2.35.09-5.81-3.45-10.45-20.44l-11.36,6.81c1.61,5.53,7.91,26.78,14.54,40a22,22,0,0,0,5.45,7.27c5.92,5.06,13.25,5.34,16.36,5.45,4.48.17,44.78.22,74.51-30C393.49,162.86,396.29,99.61,372.86,56,368.32,47.5,348.66,13,312,3.25c-8-2.12-27.87-7.4-43.16,3.18-8.45,5.85-12.64,14.57-15.9,21.36a79.39,79.39,0,0,0-7.72,32.26Z"/><path class="cls-1" d="M258.79,64.55c.74-4.25,1.63-8.56,2.69-12.8.56-2.11,1.14-4.23,1.87-6.29a18.61,18.61,0,0,1,3-5.86,3.49,3.49,0,0,1,1.4-1,2.12,2.12,0,0,1,1.72.21,6.87,6.87,0,0,1,2.21,2.5,31.68,31.68,0,0,1,2.57,6.07,109.85,109.85,0,0,1,3.19,12.74c1.68,8.59,2.8,17.28,3.63,26s1.3,17.46,1.4,26.21-.17,17.51-.77,26.24-1.51,17.45-2.9,26.1c-.7,4.33-1.52,8.64-2.62,12.9a65,65,0,0,1-2,6.32,27.63,27.63,0,0,1-1.35,3.06,11.64,11.64,0,0,1-2,2.84,4.68,4.68,0,0,1-1.56,1.06,2.92,2.92,0,0,1-2,0,6.41,6.41,0,0,1-2.77-2.3,27.81,27.81,0,0,1-3.15-5.91,112.47,112.47,0,0,1-4.13-12.52l1,.39-11.35,6.83.3-.77c2.9,9.84,6.08,19.61,9.84,29.15.95,2.37,1.92,4.74,3,7.06a49.62,49.62,0,0,0,3.5,6.72,20.19,20.19,0,0,0,12,8.22,33.15,33.15,0,0,0,7.46,1,74.62,74.62,0,0,0,7.61-.26,116.92,116.92,0,0,0,15.13-2.23c2.48-.59,5-1.14,7.41-1.9,1.22-.37,2.47-.66,3.66-1.11L320.4,222c1.21-.39,2.38-.91,3.56-1.4l3.53-1.46,3.43-1.68c1.14-.58,2.32-1.06,3.41-1.73a98.68,98.68,0,0,0,24.1-18.56A99.9,99.9,0,0,0,375.54,172c8.79-18.45,12.38-39.18,11.56-59.58a130.83,130.83,0,0,0-16.17-58.59,130.29,130.29,0,0,0-8.35-12.86c-1.49-2.08-3.11-4.06-4.71-6-.82-1-1.68-1.92-2.52-2.89l-1.27-1.44-1.33-1.38-2.67-2.75-2.8-2.61-1.41-1.31-1.47-1.22-3-2.44c-1-.8-2.06-1.51-3.08-2.27l-1.56-1.12-.77-.57-.81-.5-3.26-2c-.55-.33-1.07-.69-1.64-1l-1.7-.88-3.4-1.77c-1.13-.58-2.34-1-3.51-1.51s-2.34-1-3.54-1.45L314.52,4.6c-2.42-.81-4.91-1.46-7.39-2s-5-1.09-7.53-1.42A55.9,55.9,0,0,0,284.37,1a35,35,0,0,0-25,15.72,94.34,94.34,0,0,0-7.27,13.51,79.58,79.58,0,0,0-6.77,29.82l-.08-.11Zm0,.08L245.17,60.1l0,0v0a80,80,0,0,1,6.65-29.93A95.22,95.22,0,0,1,259,16.51a35.52,35.52,0,0,1,25.27-16,55.79,55.79,0,0,1,15.38.11c2.56.33,5.08.84,7.59,1.41s5,1.22,7.43,2l3.68,1.16c1.21.44,2.38,1,3.57,1.45s2.4.95,3.54,1.53L328.91,10l1.72.88c.56.3,1.1.67,1.65,1l3.28,2,.82.5.78.57,1.57,1.12c1,.77,2.1,1.48,3.11,2.28l3,2.45L346.3,22l1.41,1.31L350.54,26l2.69,2.76,1.34,1.39,1.28,1.44c.84,1,1.71,1.92,2.54,2.91,1.62,2,3.25,4,4.75,6.07a126.12,126.12,0,0,1,24.78,71.83c.86,20.52-2.71,41.39-11.55,60a100.75,100.75,0,0,1-17.23,25.46,97.79,97.79,0,0,1-24.35,18.74c-1.1.68-2.29,1.16-3.44,1.75L327.88,220l-3.57,1.47c-1.19.48-2.36,1-3.59,1.39l-3.65,1.26c-1.2.45-2.46.74-3.69,1.11-2.46.77-5,1.31-7.47,1.91a119.13,119.13,0,0,1-15.26,2.22c-5.11.36-10.34.55-15.36-.76A21,21,0,0,1,262.83,220a50.49,50.49,0,0,1-3.55-6.85c-1.07-2.34-2-4.72-3-7.11-3.75-9.57-6.92-19.36-9.81-29.23l0-.06.06,0,11.36-6.81.09-.06,0,.1a112.49,112.49,0,0,0,4.08,12.45,27.15,27.15,0,0,0,3.05,5.76,5.76,5.76,0,0,0,2.43,2.06,2.23,2.23,0,0,0,1.55,0,3.83,3.83,0,0,0,1.32-.9,11,11,0,0,0,1.84-2.67,27.34,27.34,0,0,0,1.33-3,61.93,61.93,0,0,0,1.95-6.25c1.1-4.23,1.92-8.52,2.63-12.83,1.4-8.63,2.31-17.33,2.94-26s.92-17.46.82-26.19-.55-17.47-1.32-26.18-1.86-17.38-3.5-26A108.58,108.58,0,0,0,274,47.49a31.61,31.61,0,0,0-2.52-6A6.59,6.59,0,0,0,269.35,39a1.84,1.84,0,0,0-1.53-.2,3.27,3.27,0,0,0-1.3.91,18.76,18.76,0,0,0-3,5.77c-.74,2.06-1.32,4.16-1.89,6.27C260.54,56,259.69,60.28,258.84,64.63Z"/></g></g></svg>