<svg xmlns="http://www.w3.org/2000/svg" width="388.04" height="229.62" style=""><rect id="backgroundrect" width="100%" height="100%" x="0" y="0" fill="none" stroke="none"/><defs><style>.cls-1{fill:#fff;}</style></defs><g class="currentLayer" style=""><title>Layer 1</title><g id="Capa_2" data-name="Capa 2" class="selected" fill="#e8e841" fill-opacity="1" stroke="#006d77" stroke-opacity="1" opacity="1"><g id="Capa_2-2" data-name="Capa 2" fill="#e8e841" fill-opacity="1" stroke="#006d77" stroke-opacity="1" opacity="1"><path class="cls-1" d="M81.43678350299962,50.51802467827082 c0.8948271568378919,-0.5474532297829142 1.8433439430860554,-1.0763487229630166 2.7829124577658413,-1.5774076112389044 s1.8701887577911922,-1.0485121180588004 2.8366020871761166,-1.50317666482766 c1.923878387201466,-0.9278868301405325 3.856705045971311,-1.8557736602810633 5.852169605719806,-2.570246519489273 a89.04425037693854,92.3340184672843 0 0 1 12.294925134952623,-3.8414514767817995 a92.2924729562601,95.70224766069443 0 0 1 12.939200687875903,-1.8557736602810633 c2.201274805821212,-0.13918302452108008 4.411497883210803,-0.20413510263091722 6.630669232168774,-0.1484618928224856 c1.1185339460473638,0 2.2281196205263494,0.04639434150702669 3.3466535665737127,0.11134641961686385 s2.2370678920947276,0.13918302452108008 3.3466535665737127,0.2783660490421598 c2.2370678920947276,0.22269283923372776 4.474135784189455,0.5474532297829142 6.702255404715804,0.9278868301405325 c1.1185339460473638,0.20413510263091722 2.2281196205263494,0.43610681016605085 3.3287570234369546,0.7144728592082108 s2.210223077389591,0.5381743614815087 3.3019122087318187,0.8629347520306948 c2.210223077389591,0.57528983468713 4.366756525368909,1.3732725086079864 6.541186516484984,2.134139709323222 c1.073792588205469,0.3897124686590244 2.129688633274181,0.9278868301405325 3.20348122147965,1.3268781671009608 s2.147585176410938,0.8722136203321001 3.176636406774514,1.4103879818136078 c2.0849472754322864,1.0113966448531788 4.1519980077278165,2.0970242361176012 6.111669481202797,3.303277115300292 s3.9014464038132046,2.431063494968192 5.798479976309534,3.7115473205621257 c3.641946528330217,2.6166408609963003 7.158617254703129,5.363185878212272 10.308408846772506,7.998384475811383 l4.653101215557035,3.9713556330014743 l4.474135784189455,3.7115473205621257 c1.4585682656457637,1.2712049572925284 2.9171365312915247,2.412505758365382 4.375704796937289,3.572364296041046 c0.724809997038694,0.6031264395913469 1.4764648087825205,1.1227430644700431 2.210223077389591,1.6701962942529567 s1.4675165372141419,1.1320219327714485 2.201274805821212,1.6701962942529567 c2.9797744322701782,2.143418577624628 6.022186765519007,4.147654130728176 9.180926629156763,6.068379869119076 c1.5838440676030676,0.9278868301405325 3.176636406774514,1.8557736602810633 4.823118375356233,2.7836604904215942 s3.2840156655950605,1.7722638455684179 4.948394177313537,2.6351985975991097 s3.3645501097104717,1.7073117674585787 5.100514793975979,2.4496212315710033 s3.4719293685310175,1.5124555331290672 5.225790595933284,2.2918804704471123 c3.5345672695096697,1.4475034550192292 7.158617254703129,2.8393337002300267 10.854253412443619,4.1012597892211495 s7.498651574301529,2.4496212315710033 11.373253163409595,3.5909220326438573 l11.901201185943952,3.303277115300292 l0.053689629410273616,1.3918302452107973 a138.12551992949685,143.2286111004924 0 0 1 -24.32140212285388,-0.8350981471264787 c-4.035670477338889,-0.5567320980843192 -8.05344441154102,-1.3268781671009608 -12.008580444764497,-2.2733227338443025 S217.11047702276068,99.73314214892461 213.21797889051584,98.38770624522083 a115.57587557718202,119.84586298095105 0 0 1 -22.09328250232753,-10.800602702835786 c-6.961755280198793,-4.43529904807174 -13.350821180021336,-9.724253979872769 -19.632507821023328,-14.95753570186537 c-3.1139985057958612,-2.644477465900515 -6.263790097865238,-5.205445117088382 -9.512012677186782,-7.617950875453763 c-1.6375336970133407,-1.178416274278475 -3.2661191224583033,-2.366111416858355 -4.975238992018675,-3.4239024032185617 s-3.436136282257502,-2.0784664995147906 -5.172100966523011,-3.0805842760665656 a83.39789101729146,86.47905256909755 0 0 0 -22.460161636631067,-8.165404105236677 a97.74197034140283,101.35307845625026 0 0 0 -11.856459828102057,-1.642359689348741 A118.87778778591384,123.2697653841696 0 0 0 105.57027192291753,48.560183466674296 a136.55957240503056,141.60480914774652 0 0 0 -23.82029891502466,3.3125559836016976 z" id="svg_1" fill="#e8e841" fill-opacity="1" stroke="#006d77" stroke-opacity="1" opacity="1"/><path class="cls-1" d="M261.2880937558474,131.15139021748297 l-11.91014945751233,3.7115473205621257 l-2.9081882597231457,0.9278868301405325 l-2.8723951734496302,0.9278868301405325 c-1.9059818440647085,0.6124053078927517 -3.7851188734242793,1.2897626938953388 -5.655307631215472,1.948562343295118 s-3.7224809724456267,1.3175992987995548 -5.530031829258166,2.0691876312133854 s-3.6329982567618377,1.438224586717824 -5.42265257043762,2.1712551825288435 s-3.5793086273515646,1.5124555331290672 -5.2794802253435575,2.3289959436527337 c-0.8948271568378919,0.3897124686590244 -1.7359646842655088,0.807261542222263 -2.5860504832615057,1.2340894840869072 s-1.7270164126971306,0.807261542222263 -2.568153940124747,1.2526472206897175 c-1.7001715979919936,0.8258192788250737 -3.3734983812788495,1.7165906357599834 -5.011032078292191,2.6351985975991097 s-3.292963937163439,1.809379318774037 -4.903652819471643,2.7836604904215942 c-3.176636406774514,1.9949566848021423 -6.353272813549028,3.9249612914944483 -9.359892060524341,6.096216474023291 c-1.521206166624415,1.0577909863602062 -3.0066192469753146,2.1990917874330598 -4.474135784189455,3.2661616420946706 s-2.943981345996662,2.3104382070499234 -4.411497883210803,3.5074122179312104 c-2.952929617565041,2.3846691534611657 -5.887962691993324,4.87140585823779 -8.94827156837891,7.571556533946737 c-6.147462567476311,5.186887380485571 -12.912355873170771,11.227430644700432 -21.341627690583703,15.820470453896064 a69.99338020785983,72.57930785359235 0 0 1 -13.127114390811862,5.5673209808431885 l-3.4003431959839863,0.9278868301405325 l-1.7001715979919936,0.4546645467688608 c-0.5637411088078723,0.12062528791826924 -1.1364304891841217,0.22269283923372776 -1.7091198695603746,0.32476039054918704 c-1.1543270323208796,0.1948562343295119 -2.290757521505001,0.43610681016605085 -3.436136282257502,0.5845687029885358 l-3.436136282257502,0.4175490735632393 c-1.1453787607525006,0.1484618928224856 -2.29970579307338,0.17629849772670111 -3.4450845538258803,0.22269283923372776 l-1.7091198695603746,0.07423094641124263 l-1.7180681411287522,0 c-1.1364304891841217,0 -2.2728609783682434,0 -3.4092914675523653,-0.07423094641124263 s-2.2549644352314853,-0.17629849772670111 -3.3734983812788495,-0.26908718074075416 a77.22358363511,80.07663344112787 0 0 1 -13.100269576106726,-2.6073619926948934 A74.1722230302928,76.91253935034865 0 0 1 92.36262308799027,190.24850242913342 a68.57060502848759,71.10396779366893 0 0 1 -10.997425757537682,-6.838525938135716 l0.4563618499873247,-1.3083204304981497 a107.37925882054692,111.34641961686378 0 0 0 23.542902496404913,5.502368902733353 a91.60345604549491,94.98777480148621 0 0 0 12.026476987901258,0.5381743614815087 a82.12723645458165,85.16145327029798 0 0 0 11.936994272217467,-1.345435903703771 a75.83660154201127,78.63840885441003 0 0 0 11.543270323208796,-3.3218348519031027 a65.89507182954229,68.32958617154873 0 0 0 10.737925882054693,-5.3910224831164895 c1.7449129558338876,-1.0021177765517735 3.3645501097104717,-2.2362072606386807 5.046825164565708,-3.3682291934101296 s3.2482225793215447,-2.431063494968192 4.805221832219474,-3.7115473205621257 c3.1676881352061343,-2.5795253877906785 6.263790097865238,-5.335349273308056 9.359892060524341,-8.035499949017003 a150.5457208664068,156.10768030284302 0 0 1 19.865162881801183,-14.948256833563962 c3.5256189979412906,-2.1898129191316547 7.158617254703129,-4.156932999029581 10.872149955580376,-5.975591186105023 a119.59364951138416,124.01207484828203 0 0 1 11.409046249683113,-4.7693383069223305 q5.816376519446292,-2.0784664995147906 11.793821927123405,-3.5816431643424513 t12.062270074174771,-2.403226890063976 a161.9637153876583,167.94751625543623 0 0 1 24.446677924811187,-1.4567823233206347 z" id="svg_2" fill="#e8e841" fill-opacity="1" stroke="#006d77" stroke-opacity="1" opacity="1"/><path class="cls-1" d="M264.05310967047643,162.26343563209508 a67.89948466085917,70.40805267106353 0 0 1 -6.263790097865238,5.27039719519822 a81.42927127224809,84.43770154278836 0 0 1 -6.952807008630414,4.463135652975957 a67.81000194517539,70.3152639880495 0 0 1 -15.507354628000654,6.420976864572478 c-1.3690855499619734,0.3804336003576193 -2.7560676430607045,0.7051939909068053 -4.160946279296194,0.9835600399489631 s-2.8097572724709785,0.5103377565772929 -4.232532451843224,0.7423094641124258 s-2.8723951734496302,0.2783660490421598 -4.322015167527014,0.4082702052618346 l-2.183378262684455,0.16701962942529575 h-2.210223077389591 l-2.2281196205263494,0 h-1.1095856744789852 c-0.37582740587191565,0 -0.7427065401754513,-0.07423094641124263 -1.1185339460473638,-0.11134641961686385 l-4.474135784189455,-0.5103377565772929 l-4.411497883210803,-0.8629347520306948 a20.679455594523663,21.44346464454768 0 0 1 -2.1654817195476963,-0.5474532297829142 l-2.129688633274181,-0.6216841761941565 c-1.4496199940773837,-0.3897124686590244 -2.8008090009025994,-0.9278868301405325 -4.160946279296194,-1.3825513769093931 l-2.0491541891587706,-0.7330305958110204 c-0.6800686391967989,-0.25052944413794415 -1.3064476489833212,-0.5288954931801038 -1.9686197450433607,-0.7887038056194534 c-1.2796028342781847,-0.5381743614815087 -2.6218435695350206,-1.0949064595658273 -3.847756774402933,-1.6609174259515516 l-3.7224809724456267,-1.7073117674585787 c-4.84996319006137,-2.2454861289400863 -9.431478233071372,-4.639434150702657 -13.96825191823948,-6.7642949917244755 l-6.7559450341260785,-3.1826518273820232 c-2.2549644352314853,-0.9278868301405325 -4.474135784189455,-2.0320721580077645 -6.764893305694457,-2.922843514942674 c-4.474135784189455,-1.9300046066923051 -9.064599098767836,-3.7115473205621257 -13.699803771188114,-5.298233800102436 l-3.4719293685310175,-1.2340894840869072 c-1.1453787607525006,-0.4175490735632393 -2.3086540646417593,-0.8258192788250737 -3.5793086273515646,-1.2248106157855017 l-7.158617254703129,-2.3289959436527337 c-4.7067908449673075,-1.558849874636094 -9.36884033209272,-2.8393337002300267 -14.021941547649755,-4.045586579412718 S106.09821994545189,142.6571869112256 101.36458428577944,141.87776197390758 l-3.5793086273515646,-0.5010588882758876 c-1.1811718470260162,-0.16701962942529575 -2.371291965620412,-0.25052944413794415 -3.5793086273515646,-0.4175490735632393 c-2.3891885087571696,-0.25980831243934904 -4.787325289082718,-0.4917800199744824 -7.158617254703129,-0.6031264395913469 c-1.2080166617311532,-0.07423094641124263 -2.4070850518939273,-0.12062528791826924 -3.5793086273515646,-0.16701962942529575 s-2.424981595030685,-0.12062528791826924 -3.641946528330217,-0.10206755131545871 s-2.433929866599064,0 -3.6508947998985963,0 s-2.4428781381674427,0 -3.6687913430353536,0.06495207810983744 c-4.894704547903265,0.18557736602810634 -9.843098725216803,0.5381743614815087 -14.800441174098719,1.1505796693742592 s-9.950477984037349,1.4196668501150131 -15.006251420171434,2.35683254855695 c-1.2617062911414267,0.23197170753513313 -2.514464310714474,0.5010588882758876 -3.7851188734242793,0.7608672007152374 l-3.7851188734242793,0.8722136203321001 c-2.568153940124747,0.5196166248786959 -5.082618250839222,1.2248106157855017 -7.686565277237484,1.800100450472631 l-0.5995341950813872,-1.2433683523883123 a148.08494618510258,153.55599151995654 0 0 1 29.028192967821184,-11.811999347688966 A136.971192897176,142.03163708961117 0 0 1 117.89204187257529,131.79163213027996 c5.1273596086811155,1.02995438145599 10.192081316383579,2.3382748119541397 15.212061666244148,3.7950571352747757 s9.950477984037349,3.071305407765159 14.898872161350887,4.7878960435251425 a212.0740361705802,219.909178743306 0 0 1 28.634469018812517,12.823395992542148 c4.6173081292835185,2.4681789681738135 9.154081814451624,5.066262092567302 13.71770031432487,7.580835402248142 A119.62944259765766,124.04919032148766 0 0 0 204.26970732213692,167.552390563896 l1.7896543136757832,0.6773573860025893 a18.791370293595712,19.48562343295116 0 0 0 1.7896543136757832,0.6216841761941565 l3.6687913430353536,1.067069854661611 l3.7403775155823853,0.7608672007152374 a14.630424014299521,15.170949672797692 0 0 0 1.8791370293595737,0.2876449173435651 l1.897033572496329,0.21341397093232262 l1.897033572496329,0.21341397093232262 l1.9059818440647085,0.05567320980843201 c1.2796028342781847,0 2.5502573969879894,0.09278868301405334 3.820911959697795,0.07423094641124263 a75.16548117438285,77.94249373180465 0 0 0 7.632875647827212,-0.5845687029885358 a81.85878830753028,84.8830872212558 0 0 0 29.037141239389566,-9.891273609298066 z" id="svg_3" fill="#e8e841" fill-opacity="1" stroke="#006d77" stroke-opacity="1" opacity="1"/><path class="cls-1" d="M260.16061153823165,72.88937615295902 c-2.559205668556369,-0.6216841761941565 -5.046825164565708,-1.2804838255939341 -7.570237746848559,-1.7258695040613885 s-4.966290720450296,-0.9278868301405325 -7.427065401754495,-1.1969740108812856 a78.57477264193523,81.47774255464007 0 0 0 -14.4693551260687,-0.2876449173435651 a58.414316798377534,60.572452271573894 0 0 0 -13.422407352568365,2.588804256092083 c-2.093895547000665,0.7423094641124258 -4.1519980077278165,1.4938977965262554 -6.192203925318207,2.458900099872409 l-1.521206166624415,0.7144728592082108 c-0.5100514793975983,0.25052944413794415 -1.020102958795196,0.5381743614815087 -1.5301544381927947,0.807261542222263 l-1.5301544381927947,0.7979826739208569 l-1.5480509813295515,0.8536558837292901 c-8.187668485066704,4.639434150702657 -17.126991781877237,10.568630995300653 -26.69269408847429,15.579219878059524 c-2.38024023718879,1.261926088991123 -4.841014918492991,2.458900099872409 -7.239151698818539,3.600200900945262 s-4.885756276334885,2.2826016021457076 -7.364427500775842,3.358950325108724 q-7.462858488028011,3.1455363541764014 -15.140475493697117,5.780734951775511 t-15.59683734368444,4.509529994482983 l-3.9730325763602354,0.9278868301405325 c-1.3243441921200791,0.2876449173435651 -2.684481470513674,0.5381743614815087 -3.9998773910653735,0.807261542222263 c-2.684481470513674,0.5567320980843192 -5.3689629410273465,0.9278868301405325 -8.05344441154102,1.3547147720051764 A142.6891384293701,147.96083393420915 0 0 1 100.51449848678347,115.08966918775039 a116.87337495459697,121.19129888465484 0 0 1 -16.509561043659087,-0.7144728592082108 A123.72775097597523,128.29891200353129 0 0 1 24.40944879772081,90.62129347694457 l0.5368962941027348,-1.2712049572925284 c4.733635659672443,1.9949566848021423 9.494116134050024,3.943519028097259 14.370924138816529,5.5673209808431885 c2.4160333234623064,0.8629347520306948 4.876808004766507,1.558849874636094 7.328634414502326,2.3104382070499234 L50.359436346019656,98.20212887919273 c1.2259132048679109,0.3525969954534025 2.4697229528725804,0.6495207810983735 3.7224809724456267,0.9278868301405325 A149.50772136447486,155.03133157988 0 0 0 84.36286830585951,103.28694870836284 A131.68276440026403,136.5478259234806 0 0 0 99.57492997210366,102.84156302989538 c5.073669979270842,-0.3897124686590244 10.129443415404928,-1.1505796693742592 15.158372036833876,-2.0227932897063585 a215.6533447979318,223.6207260638681 0 0 0 29.636675434470956,-7.831364846386085 A261.3342711545061,270.9893487425423 0 0 0 172.95075683281073,81.50016593666315 c4.644152943988657,-2.2083706557344644 9.225667986998658,-4.565203204291416 13.816131301577038,-6.9498723577525805 s9.189874900725142,-4.797174911826548 13.959303646671101,-6.903478016245554 a68.83905317553896,71.38233384271109 0 0 1 14.916768704487644,-4.797174911826548 A60.84824666497659,63.09630444955614 0 0 1 231.25769437236772,62.20011986974009 a75.6934291969172,78.48994696158756 0 0 1 29.529296175650405,9.510840008940447 z" id="svg_4" fill="#e8e841" fill-opacity="1" stroke="#006d77" stroke-opacity="1" opacity="1"/><path class="cls-1" d="M256.0086135305038,70.17066774064726 c3.4719293685310175,-19.429950223142733 6.380117628254163,-24.032268900639767 8.53665107623348,-24.032268900639767 c6.263790097865238,0 12.527580195730476,39.258891783245886 12.196494147700454,74.23094641124251 c-0.28634469018812575,29.284108359235177 -5.288428496911937,66.33462948674659 -12.196494147700454,66.60371666748736 c-2.102843818569044,0.08350981471264787 -5.198945781228147,-3.201209563984834 -9.350943788955963,-18.966006808072464 l-10.165236501678443,6.31890931325702 c1.4406717225090049,5.131214170677138 7.078082810587719,24.848809311163432 13.010786860422938,37.11547320562126 a19.686197450433607,20.41351026309169 0 0 0 4.876808004766507,6.745737255121664 c5.297376768480316,4.6951073605110905 11.856459828102057,4.954915672950438 14.639372285867896,5.056983224265897 c4.008825662633751,0.15774076112389074 40.07036008320077,0.20413510263091722 66.67357145599125,-27.836604904215946 C376.51498674186263,161.35410653855732 379.02050278100864,102.66526453216868 358.05470249629695,62.20011986974009 C353.9921872042529,54.31308181354559 336.39988530081996,22.300986173697257 303.5955217311428,13.254089579827072 c-7.158617254703129,-1.967120079897927 -24.938832861072026,-6.866362543039933 -38.62074008912338,2.95068011984689 c-7.561289475280181,5.428137956322109 -11.310615262430943,13.519311115147545 -14.227751793722469,19.819662691801753 a71.04032798136016,73.6649354448568 0 0 0 -6.908065650788519,29.93362914033354 z" id="svg_5" fill="#e8e841" fill-opacity="1" stroke="#006d77" stroke-opacity="1" opacity="1"/><path class="cls-1" d="M255.9817687157987,70.13355226744166 c0.6621720960600415,-3.943519028097259 1.4585682656457637,-7.942711266002949 2.4070850518939273,-11.876951425798802 c0.5011032078292174,-1.9578412115965236 1.020102958795196,-3.9249612914944483 1.6733267832868577,-5.836408161583943 a16.652733388753155,17.26797390891529 0 0 1 2.684481470513674,-5.437416824623514 a3.12294677736424,3.2383250371904544 0 0 1 1.2527580195730477,-0.9278868301405325 a1.897033572496329,1.967120079897927 0 0 1 1.5391027097611731,0.1948562343295119 a6.147462567476311,6.374582523065451 0 0 1 1.9775680166117389,2.3197170753513285 a28.348124328624387,29.395454778852038 0 0 1 2.29970579307338,5.632273058953025 a98.29676317864235,101.92836829093741 0 0 1 2.8544986303128725,11.821278215990372 c1.5033096234876575,7.970547870907165 2.5055160391460953,16.033884424828386 3.2482225793215447,24.12505758365382 s1.1632753038892585,16.20090405425368 1.2527580195730477,24.31991381798333 s-0.15212061666244175,16.247298395760705 -0.6890169107651779,24.347750422887543 s-1.3511890068252161,16.191625185952272 -2.5949987548298843,24.21784626666787 c-0.626379009786525,4.017749974508501 -1.3601372783935946,8.016942212414193 -2.3444471509152747,11.969740108812855 a58.16376519446292,60.31264395913455 0 0 1 -1.7896543136757832,5.8642447664881585 a24.724074343430935,25.637513116782884 0 0 1 -1.2080166617311532,2.8393337002300267 a10.415788105593053,10.800602702835786 0 0 1 -1.7896543136757832,2.6351985975991097 a4.187791094001331,4.342510365057687 0 0 1 -1.3959303646671102,0.9835600399489631 a2.612895297966642,2.7094295440103524 0 0 1 -1.7896543136757832,0 a5.735842075330883,5.947754581200806 0 0 1 -2.478671224440958,-2.134139709323222 a24.88514323166175,25.804532746208178 0 0 1 -2.8187055440393567,-5.4838111661305415 a100.64121032955761,104.35943178590557 0 0 1 -3.6956361577404904,-11.617143113359456 l0.8948271568378919,0.36187586375480846 l-10.156288230110064,6.33746704985983 l0.2684481470513674,-0.7144728592082108 c2.5949987548298843,9.13040640858283 5.440549113574378,18.19586073905582 8.805099223284849,27.04790109859649 c0.8500857989959968,2.1990917874330598 1.7180681411287522,4.39818357486612 2.684481470513674,6.550881020792152 a44.40132352229615,46.04174451157317 0 0 0 3.131895048932619,6.235399498544371 a18.06656029655702,18.73403510053733 0 0 0 10.737925882054693,7.62722974375517 a29.66352024917609,30.759448419158616 0 0 0 6.675410590010668,0.9278868301405325 a66.77200244324342,69.23891526508645 0 0 0 6.80963466353635,-0.24125057583653842 a104.62319117748622,108.48852818003094 0 0 0 13.538734882957293,-2.0691876312133854 c2.21917134895797,-0.5474532297829142 4.474135784189455,-1.0577909863602062 6.630669232168774,-1.7629849772670099 c1.0916891313422272,-0.3433181271519976 2.210223077389591,-0.6124053078927517 3.2750673940266815,-1.02995438145599 L311.11206984858114,216.2293336730683 c1.0827408597738482,-0.36187586375480846 2.129688633274181,-0.8443770154278847 3.185584678342892,-1.2990415621967444 l3.158739863637756,-1.3547147720051764 l3.0692571479539663,-1.558849874636094 c1.020102958795196,-0.5381743614815087 2.075999003863908,-0.9835600399489631 3.0513606048172086,-1.60524421614312 a88.30154383676309,91.56387239826765 0 0 0 21.56533447979318,-17.221579567408263 A89.39323296810531,92.69589433103907 0 0 0 360.45283927662246,169.83499216604173 c7.865530708605064,-17.119512016092806 11.077960201653092,-36.354606004906024 10.344201933046023,-55.283497339772865 a117.07023692910131,121.39543398728574 0 0 0 -14.4693551260687,-54.36488937793374 a116.58703026440882,120.89437509900984 0 0 0 -7.471806759596391,-11.932624635607237 c-1.3332924636884584,-1.9300046066923051 -2.7829124577658413,-3.7672205303705573 -4.214635908706468,-5.5673209808431885 c-0.7337582686070728,-0.9278868301405325 -1.5033096234876575,-1.7815427138698217 -2.2549644352314853,-2.681592939106136 l-1.1364304891841217,-1.3361570354023653 l-1.190120118594395,-1.2804838255939341 l-2.3891885087571696,-2.551688782886462 l-2.5055160391460953,-2.4217846266667875 l-1.2617062911414267,-1.215531747484096 l-1.3153959205516998,-1.1320219327714485 l-2.684481470513674,-2.2640438655428974 c-0.8948271568378919,-0.7423094641124258 -1.8433439430860554,-1.4011091135122027 -2.7560676430607045,-2.106303104419007 l-1.3959303646671102,-1.0392332497573953 l-0.6890169107651779,-0.5288954931801038 l-0.724809997038694,-0.46394341507026576 l-2.9171365312915247,-1.8557736602810633 c-0.49215493626084084,-0.30620265394637636 -0.9574650578165442,-0.6402419127969676 -1.4675165372141419,-0.9278868301405325 l-1.521206166624415,-0.8165404105236692 l-3.0424123332488295,-1.642359689348741 c-1.011154687226817,-0.5381743614815087 -2.093895547000665,-0.9278868301405325 -3.1408433205009976,-1.4011091135122027 s-2.093895547000665,-0.9278868301405325 -3.1676881352061343,-1.345435903703771 L305.8504861663743,14.506736800516787 c-2.1654817195476963,-0.7515883324138328 -4.393601340074046,-1.3547147720051764 -6.612772689032015,-1.8557736602810633 s-4.474135784189455,-1.0113966448531788 -6.73804849098932,-1.3175992987995548 A50.02083806723811,51.86887380485571 0 0 0 278.87144738771195,11.166344212010879 a31.318950489326188,32.4760390549186 0 0 0 -22.370678920947277,14.586380969809154 a84.41799397608666,87.53684355545775 0 0 0 -6.505393430211469,12.535751075198581 a71.21034514115938,73.84123394258349 0 0 0 -6.057979851792523,27.669585274790652 l-0.07158617254703138,-0.10206755131545871 zm0,0.07423094641124263 L243.79422283966656,66.00445587331627 l0,0 v0 a71.58617254703128,74.23094641124251 0 0 1 5.950600592971976,-27.771652826106106 A85.205441874104,88.35338396598141 0 0 1 256.1696824187346,25.55786894749052 a31.78426061088189,32.95854020659168 0 0 1 22.61228225329351,-14.846189282248503 a49.922407079985945,51.766806253540246 0 0 1 13.762441672166766,0.10206755131545871 c2.290757521505001,0.30620265394637636 4.545721956736487,0.7794249373180477 6.791738120399594,1.3083204304981497 s4.474135784189455,1.1320219327714485 6.648565775305531,1.8557736602810633 l3.292963937163439,1.0763487229630166 c1.0827408597738482,0.4082702052618346 2.129688633274181,0.9278868301405325 3.194532949911272,1.345435903703771 s2.147585176410938,0.8814924886335057 3.1676881352061343,1.4196668501150131 L318.72704895327155,19.51732568327566 l1.5391027097611731,0.8165404105236692 c0.5011032078292174,0.2783660490421598 0.9843098725216807,0.6216841761941565 1.4764648087825205,0.9278868301405325 l2.9350330744282833,1.8557736602810633 l0.7337582686070728,0.46394341507026576 l0.697965182333556,0.5288954931801038 l1.404878636235489,1.0392332497573953 c0.8948271568378919,0.7144728592082108 1.8791370293595737,1.3732725086079864 2.7829124577658413,2.1155819727204124 l2.684481470513674,2.2733227338443025 L334.2880932106825,30.651967644962035 l1.2617062911414267,1.215531747484096 L338.0821603556751,34.36351496552416 l2.4070850518939273,2.560967651187868 l1.1990683901627741,1.2897626938953388 l1.1453787607525006,1.3361570354023653 c0.7516548117438303,0.9278868301405325 1.5301544381927947,1.7815427138698217 2.2728609783682434,2.7001506757089464 c1.4496199940773837,1.8557736602810633 2.9081882597231457,3.7115473205621257 4.250428994979983,5.632273058953025 a112.85560102039483,117.02508701732383 0 0 1 22.173816946442944,66.65011100899437 c0.7695513548805862,19.04023775448371 -2.424981595030685,38.40523589951659 -10.335253661477642,55.67320980843189 a90.15383605141753,93.48459813665853 0 0 1 -15.417871912316862,23.62399869537793 a87.50514766717737,90.73805311944255 0 0 1 -21.78904126900265,17.38859919683356 c-0.9843098725216807,0.6309630444955633 -2.0491541891587706,1.0763487229630166 -3.078205419522346,1.6238019527459309 L317.80537698172856,214.37356001278724 l-3.194532949911272,1.3639936403065813 c-1.0648443166370904,0.4453856784674558 -2.111792090137423,0.9278868301405325 -3.2124294930480293,1.2897626938953388 l-3.2661191224583033,1.1691374059770698 c-1.073792588205469,0.4175490735632393 -2.201274805821212,0.686636254303995 -3.3019122087318187,1.02995438145599 c-2.201274805821212,0.7144728592082108 -4.474135784189455,1.215531747484096 -6.684358861579047,1.7722638455684179 a106.60075919409798,110.53915807464152 0 0 1 -13.655062413346219,2.05990876291198 c-4.572566771441623,0.3340392588505921 -9.252512801703793,0.5103377565772929 -13.744545129030007,-0.7051939909068053 A18.791370293595712,19.48562343295116 0 0 1 259.5968704294237,214.37356001278724 a45.17982314874513,46.84900605379544 0 0 1 -3.176636406774514,-6.356024786462641 c-0.9574650578165442,-2.1712551825288435 -1.7896543136757832,-4.379625838263309 -2.684481470513674,-6.597275362299179 c-3.3556018381420913,-8.879876964444886 -6.192203925318207,-17.96388903152069 -8.778254408579711,-27.122132045007735 l0,-0.05567320980843201 l0.053689629410273616,0 l10.165236501678443,-6.31890931325702 l0.08053444411541028,-0.05567320980843201 l0,0.09278868301405334 a100.65910687269437,104.37798952250839 0 0 0 3.6508947998985963,11.552191035249617 a24.294557308148743,25.192127438315428 0 0 0 2.7292228283555686,5.344628141609461 a5.154204423386253,5.344628141609461 0 0 0 2.1744299911160754,1.9114468700894949 a1.9954645597484975,2.0691876312133854 0 0 0 1.3869820930987313,0 a3.427188010689123,3.5538065594382355 0 0 0 1.1811718470260162,-0.8350981471264787 a9.843098725216803,10.206755131545846 0 0 0 1.6464819685817207,-2.477457836475219 a24.464574467947944,25.36842593604213 0 0 0 1.190120118594395,-2.7836604904215942 a55.4166458229706,57.46403139060311 0 0 0 1.7449129558338876,-5.799292688378322 c0.9843098725216807,-3.9249612914944483 1.7180681411287522,-7.905595792797327 2.3533954224836537,-11.904788030703019 c1.2527580195730477,-8.007663344112787 2.0670507322955283,-16.08027876633541 2.6307918411033997,-24.12505758365382 s0.8232409842908607,-16.20090405425368 0.7337582686070728,-24.30135608138052 s-0.49215493626084084,-16.210182922555088 -1.1811718470260162,-24.292077213079114 s-1.664378511718478,-16.12667310784244 -3.131895048932619,-24.12505758365382 A97.16033268945823,100.74995201665892 0 0 0 269.59208977130305,54.303802945244186 a28.28548642764574,29.330502700742198 0 0 0 -2.2549644352314853,-5.5673209808431885 A5.8969109635617025,6.114774210626103 0 0 0 265.4311434920068,46.42604375735107 a1.6464819685817207,1.7073117674585787 0 0 0 -1.3690855499619734,-0.18557736602810634 a2.9260848028599034,3.034189934559538 0 0 0 -1.1632753038892585,0.8443770154278847 a16.786957462278835,17.40715693343637 0 0 0 -2.684481470513674,5.353907009910867 c-0.6621720960600415,1.9114468700894949 -1.1811718470260162,3.860009213384611 -1.6912233264236147,5.817850424981132 C257.54771624026495,62.20011986974009 256.7871131569528,66.17147550274159 256.02651007364057,70.20778321385289 z" id="svg_6" fill="#e8e841" fill-opacity="1" stroke="#006d77" stroke-opacity="1" opacity="1"/></g></g></g></svg>